HIERARCHY
ROOT root
{
	OFFSET	0	13.1	24.9
	CHANNELS 6  Xposition Yposition Zposition Xrotation Yrotation Zrotation
	JOINT spine_1
	{
		OFFSET	0	9.99999	0
		CHANNELS 3  Xrotation Yrotation Zrotation
		JOINT spine_2
		{
			OFFSET	0	112	-10
			CHANNELS 3  Xrotation Yrotation Zrotation
			JOINT spine_3
			{
				OFFSET	0	206.5	19.3
				CHANNELS 3  Xrotation Yrotation Zrotation
				JOINT spine_4
				{
					OFFSET	0	110.4	14.6
					CHANNELS 3  Xrotation Yrotation Zrotation
					JOINT neck_1
					{
						OFFSET	0	71.8	-50.3
						CHANNELS 3  Xrotation Yrotation Zrotation
						JOINT neck_2
						{
							OFFSET	0	86.2	-25.8
							CHANNELS 3  Xrotation Yrotation Zrotation
							JOINT head_ee
							{
								OFFSET	0	179.8	-8.7
								CHANNELS 3  Xrotation Yrotation Zrotation
								End Site
								{
									OFFSET	1	0	0
								}
							}
						}
					}
					JOINT left_clavicle
					{
						OFFSET	-43.2	22.4	-70.8
						CHANNELS 3  Xrotation Yrotation Zrotation
						JOINT left_shoulder
						{
							OFFSET	-93.9	-5.79999	48.7
							CHANNELS 3  Xrotation Yrotation Zrotation
							JOINT left_elbow
							{
								OFFSET	-291.4	-30.8	15.2
								CHANNELS 3  Xrotation Yrotation Zrotation
								JOINT left_lowarm_twist
								{
									OFFSET	-110.7	-3.89999	13.6
									CHANNELS 3  Xrotation Yrotation Zrotation
									JOINT left_hand
									{
										OFFSET	-110.7	-3.89999	13.6
										CHANNELS 3  Xrotation Yrotation Zrotation
										JOINT left_ee
										{
											OFFSET	-80.8	-5.10001	12.1
											CHANNELS 3  Xrotation Yrotation Zrotation
											End Site
											{
												OFFSET	1	0	0
											}
										}
									}
								}
							}
						}
					}
					JOINT right_clavicle
					{
						OFFSET	43.2	22.4	-70.8
						CHANNELS 3  Xrotation Yrotation Zrotation
						JOINT right_shoulder
						{
							OFFSET	93.9	-5.79999	48.7
							CHANNELS 3  Xrotation Yrotation Zrotation
							JOINT right_elbow
							{
								OFFSET	291.4	-30.8	15.2
								CHANNELS 3  Xrotation Yrotation Zrotation
								JOINT right_lowarm_twist
								{
									OFFSET	110.7	-3.89999	13.6
									CHANNELS 3  Xrotation Yrotation Zrotation
									JOINT right_hand
									{
										OFFSET	110.7	-3.89999	13.6
										CHANNELS 3  Xrotation Yrotation Zrotation
										JOINT right_ee
										{
											OFFSET	80.8	-5.10001	12.1
											CHANNELS 3  Xrotation Yrotation Zrotation
											End Site
											{
												OFFSET	1	0	0
											}
										}
									}
								}
							}
						}
					}
				}
			}
		}
	}
	JOINT left_hip
	{
		OFFSET	-82.8	-127.5	0.300001
		CHANNELS 3  Xrotation Yrotation Zrotation
		JOINT left_knee
		{
			OFFSET	-28.2	-396.7	2.2
			CHANNELS 3  Xrotation Yrotation Zrotation
			JOINT left_ankle
			{
				OFFSET	-11.7	-411.3	35.4
				CHANNELS 3  Xrotation Yrotation Zrotation
				JOINT left_toes
				{
					OFFSET	0	-60	-88.6
					CHANNELS 3  Xrotation Yrotation Zrotation
					JOINT left_foot_ee
					{
						OFFSET	-22.5	-16.5	-42.2
						CHANNELS 3  Xrotation Yrotation Zrotation
						End Site
						{
							OFFSET	1	0	0
						}
					}
				}
			}
		}
	}
	JOINT right_hip
	{
		OFFSET	82.8	-127.5	0.300001
		CHANNELS 3  Xrotation Yrotation Zrotation
		JOINT right_knee
		{
			OFFSET	28.2	-396.7	2.2
			CHANNELS 3  Xrotation Yrotation Zrotation
			JOINT right_ankle
			{
				OFFSET	11.7	-411.3	35.4
				CHANNELS 3  Xrotation Yrotation Zrotation
				JOINT right_toes
				{
					OFFSET	0	-60	-88.6
					CHANNELS 3  Xrotation Yrotation Zrotation
					JOINT right_foot_ee
					{
						OFFSET	22.5	-16.5	-42.2
						CHANNELS 3  Xrotation Yrotation Zrotation
						End Site
						{
							OFFSET	1	0	0
						}
					}
				}
			}
		}
	}
}
MOTION
Frames: 10
Frame Time: 0.02
2910.49530517 690.406 -1889.68919929 -5.95029917909 19.9864415106 5.87160534293 3.24284 -0.0075238 0.45756 3.24296 -0.036624 0.456154 3.24262 -0.10668 0.445014 3.24235 -0.0350604 0.456277 -13.8999 9.65657 -2.77264 -14.191 20.1056 0.460594 -0.0 0.0 -0.0 2.75543 7.9664 5.82284 -6.12468 -24.1243 54.9212 1.13708 -29.3905 0.298215 21.8786 0.245244 -2.76709 -0.953306 4.38086 -4.44482 -0.0 0.0 -0.0 7.66039 11.8432 -14.7177 -26.2512 6.78264 -69.2479 0.416718 11.6639 -0.0425637 37.2327 0.213206 4.66882 0.0332649 -12.0006 -5.16039 0.0 0.0 0.0 14.5042 11.4799 -7.55811 -13.0929 0.313977 1.98039 20.3072 -0.0233569 -2.79012 3.81259 -0.0 -0.0 -0.0 0.0 -0.0 34.0574 26.7462 -13.7525 -51.8865 1.39041 -7.57339 29.7857 -5.71682 3.86522 26.5082 -0.0 -0.0 0.0 0.0 0.0 
2907.58627979 690.406 -1886.12332404 -5.97971047187 20.7447108614 5.95611653736 3.24284 -0.0075238 0.45756 3.24296 -0.036624 0.456154 3.24262 -0.10668 0.445014 3.24235 -0.0350604 0.456277 -13.8999 9.65657 -2.77264 -14.191 20.1056 0.460594 -0.0 0.0 -0.0 2.75543 7.9664 5.82284 -6.12468 -24.1243 54.9212 1.13708 -29.3905 0.298215 21.8786 0.245244 -2.76709 -0.953306 4.38086 -4.44482 -0.0 0.0 -0.0 7.66039 11.8432 -14.7177 -26.2512 6.78264 -69.2479 0.416718 11.6639 -0.0425637 37.2327 0.213206 4.66882 0.0332649 -12.0006 -5.16039 0.0 0.0 0.0 14.5042 11.4799 -7.55811 -13.0929 0.313977 1.98039 20.3072 -0.0233569 -2.79012 3.81259 -0.0 -0.0 -0.0 0.0 -0.0 34.0574 26.7462 -13.7525 -51.8865 1.39041 -7.57339 29.7857 -5.71682 3.86522 26.5082 -0.0 -0.0 0.0 0.0 0.0 
2880.83953632 692.643 -1884.65584092 -5.77302412159 22.9112274779 5.54556415373 3.05799 0.0413033 0.533682 3.05814 0.00726051 0.535228 3.05816 -0.0772481 0.529674 3.05777 0.00737228 0.535227 -15.1163 8.27568 -4.05533 -15.3721 18.2216 -1.01681 -0.0 0.0 -0.0 2.9896 7.88185 6.23422 -5.43826 -23.1645 53.9906 1.29808 -32.7408 0.381332 21.2122 0.253465 -2.68237 -1.08875 2.75574 -6.06421 -0.0 0.0 -0.0 7.17234 11.3969 -13.6935 -26.4685 6.32508 -68.8326 0.385212 10.8037 -0.0364258 37.4155 0.221705 4.69059 0.0566978 -11.4583 -5.0927 0.0 0.0 0.0 11.2517 13.1512 -5.43615 -10.4001 0.28654 1.56817 20.9357 -2.67761 -2.88727 4.07835 -0.0 -0.0 -0.0 0.0 -0.0 38.0272 26.2322 -14.9002 -51.1682 1.32543 -7.48384 30.3366 -6.52237 3.92404 26.7036 -0.0 -0.0 0.0 0.0 0.0 
2856.16245545 690.528 -1880.61125451 -5.95409142631 23.8970813543 5.42957184058 3.20037 0.137648 0.544351 3.20053 0.102731 0.552007 3.20147 0.015789 0.561262 3.20104 0.10423 0.551725 -15.6071 7.40553 -5.10049 -15.817 17.1494 -2.23694 -0.0 0.0 -0.0 3.23361 7.90861 6.66967 -4.58677 -21.4288 52.9752 1.42261 -35.1711 0.450904 20.7715 0.258359 -2.62629 -1.18328 1.49068 -7.26085 -0.0 0.0 -0.0 6.87271 11.0327 -13.0726 -26.6443 6.17909 -68.8059 0.379963 10.6598 -0.0354483 37.7107 0.235574 4.72569 0.0308875 -10.6395 -4.59904 0.0 0.0 0.0 8.98392 14.2127 -3.90144 -8.49019 0.255351 1.27678 23.449 -5.09593 -3.21781 4.77488 -0.0 -0.0 -0.0 0.0 -0.0 38.7274 24.7196 -13.7461 -50.335 1.25147 -7.37896 30.517 -7.05765 3.94365 26.5245 -0.0 -0.0 0.0 0.0 0.0 
2807.08857605 683.901 -1894.31029592 -6.23759885813 23.3922956227 4.34848428815 3.26082 0.166787 0.658147 3.26106 0.12457 0.667426 3.26243 0.020169 0.678651 3.26181 0.127094 0.66695 -11.6689 6.48196 -9.11257 -11.5822 18.1803 -7.01924 -0.0 0.0 -0.0 3.74367 8.4345 7.59738 -0.343919 -17.9655 52.8439 1.62998 -38.9159 0.575893 17.6204 0.280773 -2.22448 -1.41559 0.746748 -9.15896 -0.0 0.0 -0.0 6.72526 10.5329 -12.783 -30.952 7.77986 -66.5815 0.444555 12.4196 -0.0483714 39.3136 0.314043 4.91505 0.221329 -10.608 -5.80712 0.0 0.0 0.0 5.90376 19.6881 0.0620262 -10.1622 0.283185 1.53182 32.4962 -12.035 -4.35847 -2.25283 0.0 0.0 -0.0 0.0 -0.0 43.7538 28.9533 -13.6807 -46.181 0.906067 -6.84092 31.2184 -8.44453 4.02054 27.0015 -0.0 -0.0 0.0 0.0 0.0 
2784.08356133 682.271 -1898.75728495 -6.17842407404 23.0320505894 4.00667064551 3.15125 0.208138 0.690389 3.1515 0.163786 0.702233 3.15343 0.0521832 0.719189 3.15275 0.165108 0.701923 -10.7208 6.57884 -9.04233 -10.6005 18.4124 -7.08996 -0.0 0.0 -0.0 3.8748 8.97112 7.84698 1.1953 -17.3083 53.3009 1.79053 -41.5684 0.679639 16.4277 0.283488 -2.07217 -1.38498 -0.126034 -9.3467 -0.0 0.0 -0.0 6.77004 10.5043 -12.8791 -31.8478 8.22765 -65.2418 0.467364 13.0356 -0.0533966 39.9071 0.344437 4.98459 0.265102 -10.6678 -6.11175 0.0 0.0 0.0 4.72875 22.3282 1.43534 -11.0503 0.294938 1.66758 35.5272 -13.1528 -4.69435 -4.38765 0.0 0.0 -0.0 0.0 -0.0 44.8912 28.6628 -12.5187 -43.7422 0.721843 -6.51404 31.1691 -8.551 4.01568 26.9072 -0.0 -0.0 0.0 0.0 0.0 
2784.56308381 682.271 -1899.57644909 -6.17297360872 22.9132254066 3.99270553867 3.15125 0.208138 0.690389 3.1515 0.163786 0.702233 3.15343 0.0521832 0.719189 3.15275 0.165108 0.701923 -10.7208 6.57884 -9.04233 -10.6005 18.4124 -7.08996 -0.0 0.0 -0.0 3.8748 8.97112 7.84698 1.1953 -17.3083 53.3009 1.79053 -41.5684 0.679639 16.4277 0.283488 -2.07217 -1.38498 -0.126034 -9.3467 -0.0 0.0 -0.0 6.77004 10.5043 -12.8791 -31.8478 8.22765 -65.2418 0.467364 13.0356 -0.0533966 39.9071 0.344437 4.98459 0.265102 -10.6678 -6.11175 0.0 0.0 0.0 4.72875 22.3282 1.43534 -11.0503 0.294938 1.66758 35.5272 -13.1528 -4.69435 -4.38765 0.0 0.0 -0.0 0.0 -0.0 44.8912 28.6628 -12.5187 -43.7422 0.721843 -6.51404 31.1691 -8.551 4.01568 26.9072 -0.0 -0.0 0.0 0.0 0.0 
2758.97219758 677.98 -1913.31564659 -7.71081101471 22.696550333 4.65924015604 2.92396 0.335527 0.462192 2.92402 0.305437 0.482605 2.9266 0.224303 0.525249 2.92634 0.30444 0.483234 -10.0031 7.78413 -6.9364 -9.96625 19.3234 -4.83134 -0.0 0.0 -0.0 3.75602 9.98383 7.67067 2.69054 -16.5521 53.9801 2.18585 -47.2705 0.956669 14.8504 0.282208 -1.87072 -1.21331 0.400862 -7.95042 -0.0 0.0 -0.0 7.1843 11.4492 -13.7166 -31.6506 9.10672 -65.0246 0.390856 10.9582 -0.0374912 41.8763 0.450436 5.21308 0.0663653 -11.7446 -5.26868 0.0 0.0 0.0 2.6941 21.743 3.48014 -7.90219 0.243795 1.18729 37.4046 -14.035 -4.8997 -7.20466 0.0 0.0 -0.0 0.0 -0.0 47.2686 29.2294 -12.1102 -31.3483 0.0099343 -4.7513 29.5809 -11.3665 3.85879 26.6113 -0.0 -0.0 0.0 0.0 0.0 
2759.7894141 677.98 -1914.71029151 -7.7001314505 22.5069472826 4.63145223941 2.92396 0.335527 0.462192 2.92402 0.305437 0.482605 2.9266 0.224303 0.525249 2.92634 0.30444 0.483234 -10.0031 7.78413 -6.9364 -9.96625 19.3234 -4.83134 -0.0 0.0 -0.0 3.75602 9.98383 7.67067 2.69054 -16.5521 53.9801 2.18585 -47.2705 0.956669 14.8504 0.282208 -1.87072 -1.21331 0.400862 -7.95042 -0.0 0.0 -0.0 7.1843 11.4492 -13.7166 -31.6506 9.10672 -65.0246 0.390856 10.9582 -0.0374912 41.8763 0.450436 5.21308 0.0663653 -11.7446 -5.26868 0.0 0.0 0.0 2.6941 21.743 3.48014 -7.90219 0.243795 1.18729 37.4046 -14.035 -4.8997 -7.20466 0.0 0.0 -0.0 0.0 -0.0 47.2686 29.2294 -12.1102 -31.3483 0.0099343 -4.7513 29.5809 -11.3665 3.85879 26.6113 -0.0 -0.0 0.0 0.0 0.0 
2724.47567168 676.37 -1945.99419893 -10.6943956382 23.2043325353 6.65705652915 3.05236 0.420569 0.408019 3.05236 0.393754 0.433954 3.05537 0.320372 0.490632 3.05525 0.393837 0.433879 -8.7521 8.79202 -5.51849 -8.72017 20.2859 -3.41543 -0.0 0.0 -0.0 3.46877 8.76355 7.12384 2.43849 -16.464 53.1176 2.42144 -50.1753 1.13378 12.0396 0.266186 -1.5121 -0.519551 0.669984 -3.18253 -0.0 0.0 -0.0 8.9586 11.6364 -17.5274 -31.021 9.51138 -63.7163 0.283577 7.99653 -0.0198211 43.6569 0.553009 5.41647 0.145709 -10.354 -5.22061 0.0 0.0 0.0 3.90932 23.2876 2.97546 -8.50867 0.255699 1.27959 37.2108 -15.9519 -4.94174 -6.69375 0.0 0.0 -0.0 0.0 -0.0 46.6971 26.3827 -12.286 -9.50921 -0.273201 -1.43212 26.8234 -14.5333 3.57428 23.5336 -0.0 -0.0 0.0 0.0 0.0 
